<svg width="24" height="24" viewBox="0 0 24 24" fill="none" xmlns="http://www.w3.org/2000/svg">
<g filter="url(#filter0_ii_253_7460)">
<rect width="24" height="24" rx="12" fill="url(#paint0_linear_253_7460)"/>
<rect x="0.75" y="0.75" width="22.5" height="22.5" rx="11.25" stroke="#FFC919" stroke-width="1.5"/>
<g clip-path="url(#clip0_253_7460)">
<g filter="url(#filter1_i_253_7460)">
<path d="M6.30855 6.89285H4.67956C4.45872 8.43288 4.04841 12.0022 6.29356 14.8888C8.52099 17.7494 11.1628 18.5153 12.9867 18.653C13.2185 18.6707 13.4475 18.6789 13.6752 18.6789C15.8767 18.6789 17.8519 17.8939 18.7543 17.0393L18.8211 16.1508L18.4054 15.6165C18.1614 15.3031 17.8928 15.0291 17.6025 14.7934C18.5103 14.2155 19.1578 13.5818 19.5 13.1116L19.3528 12.1848L18.8266 11.8019L18.7884 11.7733C18.2445 11.3698 17.7292 11.0973 17.248 10.9228C17.7851 10.0233 18.025 9.10886 18.0387 9.05435L17.6066 8.2598L17.0177 8.06355C16.7846 7.98587 16.2802 7.84822 15.6368 7.84822C14.8761 7.84822 13.9205 8.04038 12.9867 8.75179C12.0761 9.44413 10.3272 10.2414 8.84269 10.2414C8.63549 10.2414 8.43238 10.2264 8.23744 10.1923C7.95799 10.1038 7.59675 10.0547 7.19325 10.0547C6.68342 10.0547 6.10544 10.1337 5.54245 10.3082C5.40886 8.94259 6.20359 7.61108 6.30855 6.89285ZM11.8921 11.4407C11.4341 11.4407 11.0047 11.3944 10.6271 11.3167C11.6808 11.055 12.7932 10.5658 13.791 9.80665C14.4467 9.30784 15.1147 9.17292 15.6449 9.17292C16.0566 9.17292 16.3838 9.25333 16.5596 9.3092C16.407 9.70443 16.1643 10.2305 15.8262 10.6639C15.2592 10.6639 14.7725 10.7934 14.3813 10.9569C13.5525 11.3044 12.6814 11.4421 11.8921 11.4421V11.4407ZM13.6765 17.3514C13.4829 17.3514 13.2866 17.3446 13.0876 17.3296C11.5309 17.2124 9.27073 16.5514 7.34184 14.0738C6.7066 13.2588 6.32218 12.3756 6.09862 11.5061C6.4844 11.3944 6.82247 11.344 7.12509 11.344C7.24642 11.344 7.36365 11.3521 7.47407 11.3685C7.47407 11.3685 7.71398 11.4094 7.89665 11.4721C8.18837 11.5756 8.44056 11.7365 8.66957 11.9368L8.6723 11.9395C8.93675 12.1698 9.17258 12.4506 9.40569 12.7504C9.8937 13.3773 11.3019 15.1859 13.8455 15.1859C14.0555 15.1859 14.2722 15.1736 14.4971 15.1477C14.6239 15.1327 14.7466 15.1259 14.8666 15.1259C16.1425 15.1259 16.9659 15.9245 17.3598 16.4315C16.5746 16.9003 15.2237 17.3528 13.6765 17.3528V17.3514ZM11.8662 12.7668C12.9186 12.7668 13.9791 12.5624 14.8938 12.1794C15.1883 12.0554 15.4964 11.994 15.8167 11.994C16.4997 11.994 17.2344 12.2734 17.9814 12.8254C17.5643 13.2233 16.9659 13.669 16.257 14.0356C15.8085 13.8789 15.3355 13.7985 14.8516 13.7985C14.6825 13.7985 14.5121 13.808 14.3417 13.8284C14.1673 13.8489 13.9982 13.8584 13.8374 13.8584C12.665 13.8584 11.8158 13.3542 11.1669 12.7354C11.2569 12.7436 11.3468 12.7504 11.4368 12.7559C11.58 12.7641 11.7231 12.7668 11.8662 12.7668Z" fill="#C47E00"/>
</g>
<path d="M14.8751 15.1259C14.7565 15.1259 14.6325 15.1327 14.5057 15.1477C14.2808 15.1736 14.064 15.1859 13.8541 15.1859C11.3104 15.1859 9.90226 13.376 9.41424 12.7504C9.18114 12.4506 8.94531 12.1698 8.68085 11.9395L8.67813 11.9368C8.44911 11.7365 8.19693 11.5756 7.90521 11.4721C7.7239 11.4094 7.48262 11.3685 7.48262 11.3685C7.3722 11.3521 7.25633 11.3453 7.13365 11.3453C6.83239 11.3453 6.49296 11.3957 6.10718 11.5075C6.33074 12.377 6.71652 13.2588 7.35039 14.0751C9.27929 16.5528 11.5394 17.2138 13.0962 17.331C13.2952 17.346 13.4915 17.3528 13.6851 17.3528C15.2309 17.3528 16.5818 16.9003 17.3684 16.4315C16.9744 15.9245 16.1497 15.1259 14.8751 15.1259Z" fill="#FFC919"/>
<path d="M14.3899 10.9569C14.7812 10.7934 15.2678 10.6652 15.8349 10.6639C16.173 10.2319 16.4156 9.70579 16.5683 9.3092C16.3938 9.25469 16.0653 9.17292 15.6536 9.17292C15.1233 9.17292 14.4554 9.30784 13.7997 9.80665C12.8018 10.5658 11.6895 11.055 10.6357 11.3167C11.0133 11.3944 11.4427 11.4407 11.9008 11.4407C12.6887 11.4407 13.5611 11.3031 14.3899 10.9555V10.9569Z" fill="#FFC919"/>
<path d="M14.9037 12.1794C13.989 12.5624 12.9284 12.7668 11.8761 12.7668C11.7329 12.7668 11.5898 12.7627 11.4467 12.7559C11.3553 12.7504 11.2654 12.7436 11.1768 12.7354C11.8256 13.3528 12.6763 13.8584 13.8472 13.8584C14.0094 13.8584 14.1771 13.8489 14.3516 13.8284C14.5234 13.808 14.6938 13.7985 14.8614 13.7985C15.3453 13.7985 15.8184 13.8789 16.2669 14.0356C16.9757 13.669 17.5741 13.2233 17.9913 12.8254C17.2429 12.2734 16.5095 11.994 15.8265 11.994C15.5062 11.994 15.1981 12.0554 14.9037 12.1794Z" fill="#FFC919"/>
</g>
</g>
<circle cx="12" cy="12" r="10.25" stroke="#DE9C01" stroke-width="0.5"/>
<defs>
<filter id="filter0_ii_253_7460" x="0" y="0" width="24" height="24" filterUnits="userSpaceOnUse" color-interpolation-filters="sRGB">
<feFlood flood-opacity="0" result="BackgroundImageFix"/>
<feBlend mode="normal" in="SourceGraphic" in2="BackgroundImageFix" result="shape"/>
<feColorMatrix in="SourceAlpha" type="matrix" values="0 0 0 0 0 0 0 0 0 0 0 0 0 0 0 0 0 0 127 0" result="hardAlpha"/>
<feOffset dy="3"/>
<feComposite in2="hardAlpha" operator="arithmetic" k2="-1" k3="1"/>
<feColorMatrix type="matrix" values="0 0 0 0 0.965739 0 0 0 0 0.708209 0 0 0 0 0 0 0 0 1 0"/>
<feBlend mode="normal" in2="shape" result="effect1_innerShadow_253_7460"/>
<feColorMatrix in="SourceAlpha" type="matrix" values="0 0 0 0 0 0 0 0 0 0 0 0 0 0 0 0 0 0 127 0" result="hardAlpha"/>
<feOffset dy="-3"/>
<feComposite in2="hardAlpha" operator="arithmetic" k2="-1" k3="1"/>
<feColorMatrix type="matrix" values="0 0 0 0 1 0 0 0 0 0.836619 0 0 0 0 0.304118 0 0 0 1 0"/>
<feBlend mode="normal" in2="effect1_innerShadow_253_7460" result="effect2_innerShadow_253_7460"/>
</filter>
<filter id="filter1_i_253_7460" x="4.5" y="6.89285" width="15" height="11.786" filterUnits="userSpaceOnUse" color-interpolation-filters="sRGB">
<feFlood flood-opacity="0" result="BackgroundImageFix"/>
<feBlend mode="normal" in="SourceGraphic" in2="BackgroundImageFix" result="shape"/>
<feColorMatrix in="SourceAlpha" type="matrix" values="0 0 0 0 0 0 0 0 0 0 0 0 0 0 0 0 0 0 127 0" result="hardAlpha"/>
<feOffset dy="0.5"/>
<feComposite in2="hardAlpha" operator="arithmetic" k2="-1" k3="1"/>
<feColorMatrix type="matrix" values="0 0 0 0 0 0 0 0 0 0 0 0 0 0 0 0 0 0 0.25 0"/>
<feBlend mode="normal" in2="shape" result="effect1_innerShadow_253_7460"/>
</filter>
<linearGradient id="paint0_linear_253_7460" x1="12" y1="0" x2="12" y2="24" gradientUnits="userSpaceOnUse">
<stop stop-color="#FFC919"/>
<stop offset="1" stop-color="#FFC919"/>
</linearGradient>
<clipPath id="clip0_253_7460">
<rect width="15" height="11.786" fill="white" transform="translate(4.5 6.89285)"/>
</clipPath>
</defs>
</svg>
