<svg width="24" height="24" viewBox="0 0 24 24" fill="none" xmlns="http://www.w3.org/2000/svg">
<circle cx="12" cy="12" r="10.45" fill="#33AB4A" stroke="#207533" stroke-width="1.1"/>
<path d="M12 7.05C6.49995 7.05 3.19995 12 3.19995 12C3.19995 12 6.49995 16.95 12 16.95C17.5 16.95 20.8 12 20.8 12C20.8 12 17.5 7.05 12 7.05Z" fill="white" stroke="#207533" stroke-width="1.1"/>
<path fill-rule="evenodd" clip-rule="evenodd" d="M13.269 8.95283C12.8783 8.78995 12.4496 8.7 12 8.7C10.1774 8.7 8.69995 10.1775 8.69995 12C8.69995 13.8225 10.1774 15.3 12 15.3C13.8225 15.3 15.3 13.8225 15.3 12C14.0849 12 13.1 11.015 13.1 9.8C13.1 9.49977 13.1601 9.21358 13.269 8.95283Z" fill="#184623"/>
</svg>
