<svg width="24" height="24" viewBox="0 0 24 24" fill="none" xmlns="http://www.w3.org/2000/svg">
<rect width="24" height="24" rx="12" fill="#F7C646"/>
<rect x="6.93091" y="8.45011" width="0.75956" height="0.75956" fill="#0C0500"/>
<rect x="6.17139" y="9.20967" width="0.75956" height="0.75956" fill="#0C0500"/>
<rect x="5.41187" y="9.96923" width="0.75956" height="0.75956" fill="#0C0500"/>
<rect x="5.41187" y="10.7288" width="0.75956" height="0.75956" fill="#0C0500"/>
<rect x="5.41187" y="11.4883" width="0.75956" height="0.75956" fill="#0C0500"/>
<rect x="4.6521" y="11.4883" width="0.75956" height="0.75956" fill="#0C0500"/>
<rect x="3.89258" y="12.2479" width="0.75956" height="0.75956" fill="#0C0500"/>
<rect x="3.13306" y="13.0075" width="0.75956" height="0.75956" fill="#0C0500"/>
<rect x="3.13306" y="13.767" width="0.75956" height="0.75956" fill="#0C0500"/>
<rect x="3.13306" y="14.5266" width="0.75956" height="0.75956" fill="#0C0500"/>
<rect x="3.89258" y="15.2862" width="0.75956" height="0.75956" fill="#0C0500"/>
<rect x="4.6521" y="16.0457" width="0.75956" height="0.75956" fill="#0C0500"/>
<rect x="5.41187" y="16.8053" width="0.75956" height="0.75956" fill="#0C0500"/>
<rect x="6.17139" y="17.5648" width="0.75956" height="0.75956" fill="#0C0500"/>
<rect x="6.93091" y="18.3244" width="0.75956" height="0.75956" fill="#0C0500"/>
<rect x="7.69043" y="19.084" width="0.75956" height="0.75956" fill="#0C0500"/>
<rect x="8.44995" y="19.8435" width="0.75956" height="0.75956" fill="#0C0500"/>
<rect x="9.20947" y="19.8435" width="0.75956" height="0.75956" fill="#0C0500"/>
<rect x="9.96924" y="19.8435" width="0.75956" height="0.75956" fill="#0C0500"/>
<rect x="10.7288" y="19.8435" width="0.75956" height="0.75956" fill="#0C0500"/>
<rect x="11.4883" y="19.8435" width="0.75956" height="0.75956" fill="#0C0500"/>
<rect x="12.2478" y="19.8435" width="0.75956" height="0.75956" fill="#0C0500"/>
<rect x="13.0073" y="19.8435" width="0.75956" height="0.75956" fill="#0C0500"/>
<rect x="13.7668" y="19.8435" width="0.75956" height="0.75956" fill="#0C0500"/>
<rect x="14.5266" y="19.8435" width="0.75956" height="0.75956" fill="#0C0500"/>
<rect x="15.2861" y="19.8435" width="0.75956" height="0.75956" fill="#0C0500"/>
<rect x="16.0457" y="19.8435" width="0.75956" height="0.75956" fill="#0C0500"/>
<rect x="16.8052" y="19.084" width="0.75956" height="0.75956" fill="#0C0500"/>
<rect x="17.5647" y="18.3244" width="0.75956" height="0.75956" fill="#0C0500"/>
<rect x="18.3242" y="17.5648" width="0.75956" height="0.75956" fill="#0C0500"/>
<rect x="17.5647" y="17.5648" width="0.75956" height="0.75956" fill="#0C0500"/>
<rect x="16.8052" y="17.5648" width="0.75956" height="0.75956" fill="#0C0500"/>
<rect x="16.0457" y="17.5648" width="0.75956" height="0.75956" fill="#0C0500"/>
<rect x="15.2861" y="17.5648" width="0.75956" height="0.75956" fill="#0C0500"/>
<rect x="14.5266" y="17.5648" width="0.75956" height="0.75956" fill="#0C0500"/>
<rect x="13.7668" y="17.5648" width="0.75956" height="0.75956" fill="#0C0500"/>
<rect x="13.0073" y="17.5648" width="0.75956" height="0.75956" fill="#0C0500"/>
<rect x="12.2478" y="17.5648" width="0.75956" height="0.75956" fill="#0C0500"/>
<rect x="11.4883" y="17.5648" width="0.75956" height="0.75956" fill="#0C0500"/>
<rect x="10.7288" y="17.5648" width="0.75956" height="0.75956" fill="#0C0500"/>
<rect x="9.96924" y="17.5648" width="0.75956" height="0.75956" fill="#0C0500"/>
<rect x="9.20947" y="17.5648" width="0.75956" height="0.75956" fill="#0C0500"/>
<rect x="8.44995" y="19.084" width="0.75956" height="0.75956" fill="#0C0500"/>
<rect x="7.69043" y="18.3244" width="0.75956" height="0.75956" fill="#0C0500"/>
<rect x="7.69043" y="17.5648" width="0.75956" height="0.75956" fill="#0C0500"/>
<rect x="6.93091" y="17.5648" width="0.75956" height="0.75956" fill="#0C0500"/>
<rect x="6.93091" y="16.8053" width="0.75956" height="0.75956" fill="#0C0500"/>
<rect x="6.17139" y="16.8053" width="0.75956" height="0.75956" fill="#0C0500"/>
<rect x="6.17139" y="16.0457" width="0.75956" height="0.75956" fill="#0C0500"/>
<rect x="6.17139" y="15.2862" width="0.75956" height="0.75956" fill="#0C0500"/>
<rect x="6.17139" y="14.5266" width="0.75956" height="0.75956" fill="#0C0500"/>
<rect x="6.17139" y="13.767" width="0.75956" height="0.75956" fill="#0C0500"/>
<rect x="5.41187" y="14.5266" width="0.75956" height="0.75956" fill="#0C0500"/>
<rect x="5.41187" y="13.767" width="0.75956" height="0.75956" fill="#0C0500"/>
<rect x="5.41187" y="13.0075" width="0.75956" height="0.75956" fill="#0C0500"/>
<rect x="5.41187" y="12.2479" width="0.75956" height="0.75956" fill="white"/>
<rect x="4.6521" y="12.2479" width="0.75956" height="0.75956" fill="white"/>
<rect x="4.6521" y="13.0075" width="0.75956" height="0.75956" fill="white"/>
<rect x="4.6521" y="13.767" width="0.75956" height="0.75956" fill="white"/>
<rect x="4.6521" y="14.5266" width="0.75956" height="0.75956" fill="white"/>
<rect x="4.6521" y="15.2862" width="0.75956" height="0.75956" fill="white"/>
<rect x="5.41187" y="15.2862" width="0.75956" height="0.75956" fill="white"/>
<rect x="3.89258" y="13.0075" width="0.75956" height="0.75956" fill="white"/>
<rect x="3.89258" y="13.767" width="0.75956" height="0.75956" fill="white"/>
<rect x="3.89258" y="14.5266" width="0.75956" height="0.75956" fill="white"/>
<rect x="6.17139" y="13.0075" width="0.75956" height="0.75956" fill="#0C0500"/>
<rect x="6.93091" y="13.0075" width="0.75956" height="0.75956" fill="#0C0500"/>
<rect x="7.69043" y="13.0075" width="0.75956" height="0.75956" fill="#0C0500"/>
<rect x="6.93091" y="12.2479" width="0.75956" height="0.75956" fill="#0C0500"/>
<rect x="7.69043" y="12.2479" width="0.75956" height="0.75956" fill="#0C0500"/>
<rect x="6.17139" y="12.2479" width="0.75956" height="0.75956" fill="#0C0500"/>
<rect x="6.17139" y="11.4883" width="0.75956" height="0.75956" fill="#0C0500"/>
<rect x="6.17139" y="10.7288" width="0.75956" height="0.75956" fill="#0C0500"/>
<rect x="6.17139" y="9.96923" width="0.75956" height="0.75956" fill="#0C0500"/>
<rect x="6.93091" y="9.20967" width="0.75956" height="0.75956" fill="#0C0500"/>
<rect x="7.69043" y="9.20967" width="0.75956" height="0.75956" fill="#0C0500"/>
<rect x="8.44995" y="9.20967" width="0.75956" height="0.75956" fill="#0C0500"/>
<rect x="9.20947" y="9.20967" width="0.75956" height="0.75956" fill="#0C0500"/>
<rect x="7.69043" y="8.45011" width="0.75956" height="0.75956" fill="#0C0500"/>
<rect x="8.44995" y="8.45011" width="0.75956" height="0.75956" fill="#0C0500"/>
<rect x="9.20947" y="8.45011" width="0.75956" height="0.75956" fill="#0C0500"/>
<rect x="7.69043" y="7.69055" width="0.75956" height="0.75956" fill="#0C0500"/>
<rect x="8.44995" y="7.69055" width="0.75956" height="0.75956" fill="#0C0500"/>
<rect x="9.20947" y="7.69055" width="0.75956" height="0.75956" fill="#3A2206"/>
<rect x="9.20947" y="6.93099" width="0.75956" height="0.75956" fill="#7F661F"/>
<rect x="9.20947" y="6.17143" width="0.75956" height="0.75956" fill="#C9A136"/>
<rect x="8.44995" y="6.17143" width="0.75956" height="0.75956" fill="#C9A136"/>
<rect x="8.44995" y="6.93099" width="0.75956" height="0.75956" fill="#7F661F"/>
<rect x="7.69043" y="6.17143" width="0.75956" height="0.75956" fill="#7F661F"/>
<rect x="7.69043" y="5.41187" width="0.75956" height="0.75956" fill="#7F661F"/>
<rect x="6.93091" y="4.65231" width="0.75956" height="0.75956" fill="#3A2206"/>
<rect x="6.17139" y="3.89275" width="0.75956" height="0.75956" fill="#3A2206"/>
<rect x="6.93091" y="3.89275" width="0.75956" height="0.75956" fill="#573510"/>
<rect x="7.69043" y="3.89275" width="0.75956" height="0.75956" fill="#573510"/>
<rect x="6.93091" y="3.13319" width="0.75956" height="0.75956" fill="#573510"/>
<rect x="6.17139" y="3.13319" width="0.75956" height="0.75956" fill="#573510"/>
<rect x="9.96924" y="6.93099" width="0.75956" height="0.75956" fill="#C9A136"/>
<rect x="9.96924" y="7.69055" width="0.75956" height="0.75956" fill="#7F661F"/>
<rect x="9.96924" y="8.45011" width="0.75956" height="0.75956" fill="#3A2206"/>
<rect x="9.96924" y="9.20967" width="0.75956" height="0.75956" fill="#0C0500"/>
<rect x="9.96924" y="9.96923" width="0.75956" height="0.75956" fill="#0C0500"/>
<rect x="10.7288" y="6.93099" width="0.75956" height="0.75956" fill="#C9A136"/>
<rect x="10.7288" y="7.69055" width="0.75956" height="0.75956" fill="#7F661F"/>
<rect x="10.7288" y="8.45011" width="0.75956" height="0.75956" fill="#3A2206"/>
<rect x="10.7288" y="9.20967" width="0.75956" height="0.75956" fill="#0C0500"/>
<rect x="11.4883" y="6.93099" width="0.75956" height="0.75956" fill="#C9A136"/>
<rect x="11.4883" y="7.69055" width="0.75956" height="0.75956" fill="#7F661F"/>
<rect x="11.4883" y="8.45011" width="0.75956" height="0.75956" fill="#3A2206"/>
<rect x="11.4883" y="9.20967" width="0.75956" height="0.75956" fill="#0C0500"/>
<rect x="12.2478" y="6.93099" width="0.75956" height="0.75956" fill="#C9A136"/>
<rect x="12.2478" y="7.69055" width="0.75956" height="0.75956" fill="#7F661F"/>
<rect x="12.2478" y="8.45011" width="0.75956" height="0.75956" fill="#3A2206"/>
<rect x="12.2478" y="9.20967" width="0.75956" height="0.75956" fill="#0C0500"/>
<rect x="13.0073" y="6.93099" width="0.75956" height="0.75956" fill="#C9A136"/>
<rect x="13.0073" y="7.69055" width="0.75956" height="0.75956" fill="#7F661F"/>
<rect x="13.0073" y="8.45011" width="0.75956" height="0.75956" fill="#3A2206"/>
<rect x="13.0073" y="9.20967" width="0.75956" height="0.75956" fill="#0C0500"/>
<rect x="13.0073" y="9.96923" width="0.75956" height="0.75956" fill="#0C0500"/>
<rect x="13.7668" y="6.93099" width="0.75956" height="0.75956" fill="#C9A136"/>
<rect x="13.7668" y="7.69055" width="0.75956" height="0.75956" fill="#7F661F"/>
<rect x="13.7668" y="8.45011" width="0.75956" height="0.75956" fill="#3A2206"/>
<rect x="13.7668" y="9.20967" width="0.75956" height="0.75956" fill="#0C0500"/>
<rect x="13.7668" y="9.96923" width="0.75956" height="0.75956" fill="#0C0500"/>
<rect x="14.5266" y="6.93099" width="0.75956" height="0.75956" fill="#7F661F"/>
<rect x="14.5266" y="6.17143" width="0.75956" height="0.75956" fill="#C9A136"/>
<rect x="15.2861" y="6.93099" width="0.75956" height="0.75956" fill="#7F661F"/>
<rect x="15.2861" y="6.17143" width="0.75956" height="0.75956" fill="#C9A136"/>
<rect x="16.0457" y="6.17143" width="0.75956" height="0.75956" fill="#7F661F"/>
<rect x="16.8052" y="5.41187" width="0.75956" height="0.75956" fill="#7F661F"/>
<rect x="16.0457" y="4.65231" width="0.75956" height="0.75956" fill="#F7C646"/>
<rect x="7.69043" y="4.65231" width="0.75956" height="0.75956" fill="#F7C646"/>
<rect x="15.2861" y="5.41187" width="0.75956" height="0.75956" fill="#F7C646"/>
<rect x="14.5266" y="5.41187" width="0.75956" height="0.75956" fill="#F7C646"/>
<rect x="16.0457" y="5.41187" width="0.75956" height="0.75956" fill="#C9A136"/>
<rect x="15.2861" y="4.65231" width="0.75956" height="0.75956" fill="#C9A136"/>
<rect x="9.20947" y="4.65231" width="0.75956" height="0.75956" fill="#C9A136"/>
<rect x="14.5266" y="4.65231" width="0.75956" height="0.75956" fill="#C9A136"/>
<rect x="8.44995" y="4.65231" width="0.75956" height="0.75956" fill="#C9A136"/>
<rect x="13.7668" y="5.41187" width="0.75956" height="0.75956" fill="#C9A136"/>
<rect x="13.7668" y="6.17143" width="0.75956" height="0.75956" fill="#F7C646"/>
<rect x="13.0073" y="5.41187" width="0.75956" height="0.75956" fill="#C9A136"/>
<rect x="13.0073" y="6.17143" width="0.75956" height="0.75956" fill="#F7C646"/>
<rect x="12.2478" y="5.41187" width="0.75956" height="0.75956" fill="#C9A136"/>
<rect x="12.2478" y="6.17143" width="0.75956" height="0.75956" fill="#F7C646"/>
<rect x="11.4883" y="5.41187" width="0.75956" height="0.75956" fill="#C9A136"/>
<rect x="11.4883" y="6.17143" width="0.75956" height="0.75956" fill="#F7C646"/>
<rect x="10.7288" y="5.41187" width="0.75956" height="0.75956" fill="#C9A136"/>
<rect x="10.7288" y="6.17143" width="0.75956" height="0.75956" fill="#F7C646"/>
<rect x="9.96924" y="5.41187" width="0.75956" height="0.75956" fill="#C9A136"/>
<rect x="9.96924" y="6.17143" width="0.75956" height="0.75956" fill="#F7C646"/>
<rect x="9.20947" y="5.41187" width="0.75956" height="0.75956" fill="#F7C646"/>
<rect x="8.44995" y="5.41187" width="0.75956" height="0.75956" fill="#F7C646"/>
<rect x="16.8052" y="4.65231" width="0.75956" height="0.75956" fill="#573510"/>
<rect x="16.8052" y="3.89275" width="0.75956" height="0.75956" fill="#573510"/>
<rect x="16.0457" y="3.89275" width="0.75956" height="0.75956" fill="#573510"/>
<rect x="14.5266" y="7.69055" width="0.75956" height="0.75956" fill="#3A2206"/>
<rect x="15.2861" y="7.69055" width="0.75956" height="0.75956" fill="#0C0500"/>
<rect x="15.2861" y="8.45011" width="0.75956" height="0.75956" fill="#0C0500"/>
<rect x="15.2861" y="9.20967" width="0.75956" height="0.75956" fill="#0C0500"/>
<rect x="16.0457" y="7.69055" width="0.75956" height="0.75956" fill="#0C0500"/>
<rect x="16.0457" y="8.45011" width="0.75956" height="0.75956" fill="#0C0500"/>
<rect x="16.8052" y="8.45011" width="0.75956" height="0.75956" fill="#0C0500"/>
<rect x="16.0457" y="9.20967" width="0.75956" height="0.75956" fill="#0C0500"/>
<rect x="16.8052" y="9.20967" width="0.75956" height="0.75956" fill="#0C0500"/>
<rect x="16.8052" y="9.96923" width="0.75956" height="0.75956" fill="#0C0500"/>
<rect x="17.5647" y="9.96923" width="0.75956" height="0.75956" fill="#0C0500"/>
<rect x="17.5647" y="10.7288" width="0.75956" height="0.75956" fill="#0C0500"/>
<rect x="17.5647" y="11.4883" width="0.75956" height="0.75956" fill="#0C0500"/>
<rect x="17.5647" y="12.2479" width="0.75956" height="0.75956" fill="#0C0500"/>
<rect x="17.5647" y="13.0075" width="0.75956" height="0.75956" fill="#0C0500"/>
<rect x="17.5647" y="13.767" width="0.75956" height="0.75956" fill="#0C0500"/>
<rect x="17.5647" y="14.5266" width="0.75956" height="0.75956" fill="#0C0500"/>
<rect x="18.3242" y="15.2862" width="0.75956" height="0.75956" fill="#0C0500"/>
<rect x="14.5266" y="14.5266" width="0.75956" height="0.75956" fill="#C9C9C9"/>
<rect x="13.0073" y="14.5266" width="0.75956" height="0.75956" fill="#C9C9C9"/>
<rect x="12.2478" y="13.767" width="0.75956" height="0.75956" fill="#0C0500"/>
<rect x="16.0457" y="13.767" width="0.75956" height="0.75956" fill="#0C0500"/>
<rect x="11.4883" y="13.767" width="0.75956" height="0.75956" fill="#0C0500"/>
<rect x="15.2861" y="13.767" width="0.75956" height="0.75956" fill="#0C0500"/>
<rect x="12.2478" y="13.0075" width="0.75956" height="0.75956" fill="#0C0500"/>
<rect x="16.0457" y="13.0075" width="0.75956" height="0.75956" fill="#0C0500"/>
<rect x="11.4883" y="13.0075" width="0.75956" height="0.75956" fill="#0C0500"/>
<rect x="15.2861" y="13.0075" width="0.75956" height="0.75956" fill="#0C0500"/>
<rect x="12.2478" y="12.2479" width="0.75956" height="0.75956" fill="white"/>
<rect x="16.0457" y="12.2479" width="0.75956" height="0.75956" fill="white"/>
<rect x="11.4883" y="12.2479" width="0.75956" height="0.75956" fill="#0C0500"/>
<rect x="15.2861" y="12.2479" width="0.75956" height="0.75956" fill="#0C0500"/>
<rect x="19.084" y="16.0457" width="0.75956" height="0.75956" fill="#0C0500"/>
<rect x="19.084" y="16.8053" width="0.75956" height="0.75956" fill="#0C0500"/>
<rect x="17.5647" y="9.20967" width="0.75956" height="0.75956" fill="#0C0500"/>
<rect x="14.5266" y="8.45011" width="0.75956" height="0.75956" fill="#0C0500"/>
<rect x="14.5266" y="9.20967" width="0.75956" height="0.75956" fill="#0C0500"/>
<rect x="14.5266" y="9.96923" width="0.75956" height="0.75956" fill="#0C0500"/>
<rect x="6.93091" y="11.4883" width="0.75956" height="0.75956" fill="#0C0500"/>
<rect x="7.69043" y="11.4883" width="0.75956" height="0.75956" fill="#0C0500"/>
<rect x="8.44995" y="11.4883" width="0.75956" height="0.75956" fill="#0C0500"/>
<rect x="6.93091" y="10.7288" width="0.75956" height="0.75956" fill="#0C0500"/>
<rect x="7.69043" y="10.7288" width="0.75956" height="0.75956" fill="#0C0500"/>
<rect x="8.44995" y="10.7288" width="0.75956" height="0.75956" fill="#0C0500"/>
<rect x="9.20947" y="10.7288" width="0.75956" height="0.75956" fill="#0C0500"/>
<rect x="6.93091" y="9.96923" width="0.75956" height="0.75956" fill="#0C0500"/>
<rect x="7.69043" y="9.96923" width="0.75956" height="0.75956" fill="#0C0500"/>
<rect x="8.44995" y="9.96923" width="0.75956" height="0.75956" fill="#0C0500"/>
<rect x="9.20947" y="9.96923" width="0.75956" height="0.75956" fill="#0C0500"/>
<rect x="6.93091" y="15.2862" width="0.75956" height="0.75956" fill="#0C0500"/>
<rect x="6.93091" y="14.5266" width="0.75956" height="0.75956" fill="#0C0500"/>
<rect x="6.93091" y="13.767" width="0.75956" height="0.75956" fill="#0C0500"/>
<rect x="7.69043" y="15.2862" width="0.75956" height="0.75956" fill="#0C0500"/>
<rect x="7.69043" y="14.5266" width="0.75956" height="0.75956" fill="#0C0500"/>
<rect x="7.69043" y="13.767" width="0.75956" height="0.75956" fill="#0C0500"/>
<rect x="5.41187" y="16.0457" width="0.75956" height="0.75956" fill="#0C0500"/>
<rect x="6.93091" y="16.0457" width="0.75956" height="0.75956" fill="#0C0500"/>
<rect x="8.44995" y="16.8053" width="0.75956" height="0.75956" fill="#0C0500"/>
<rect x="8.44995" y="17.5648" width="0.75956" height="0.75956" fill="white"/>
<rect x="8.44995" y="18.3244" width="0.75956" height="0.75956" fill="white"/>
<rect x="9.20947" y="18.3244" width="0.75956" height="0.75956" fill="white"/>
<rect x="9.20947" y="19.084" width="0.75956" height="0.75956" fill="white"/>
<rect x="9.20947" y="16.8053" width="0.75956" height="0.75956" fill="white"/>
<rect x="9.20947" y="16.0457" width="0.75956" height="0.75956" fill="white"/>
<rect x="9.96924" y="18.3244" width="0.75956" height="0.75956" fill="white"/>
<rect x="9.96924" y="19.084" width="0.75956" height="0.75956" fill="white"/>
<rect x="9.96924" y="16.8053" width="0.75956" height="0.75956" fill="white"/>
<rect x="9.96924" y="16.0457" width="0.75956" height="0.75956" fill="white"/>
<rect x="9.96924" y="15.2862" width="0.75956" height="0.75956" fill="white"/>
<rect x="7.69043" y="16.0457" width="0.75956" height="0.75956" fill="white"/>
<rect x="8.44995" y="15.2862" width="0.75956" height="0.75956" fill="white"/>
<rect x="8.44995" y="14.5266" width="0.75956" height="0.75956" fill="white"/>
<rect x="9.20947" y="14.5266" width="0.75956" height="0.75956" fill="white"/>
<rect x="9.96924" y="14.5266" width="0.75956" height="0.75956" fill="white"/>
<rect x="10.7288" y="14.5266" width="0.75956" height="0.75956" fill="white"/>
<rect x="8.44995" y="13.767" width="0.75956" height="0.75956" fill="white"/>
<rect x="9.20947" y="13.767" width="0.75956" height="0.75956" fill="white"/>
<rect x="9.96924" y="13.767" width="0.75956" height="0.75956" fill="white"/>
<rect x="10.7288" y="13.767" width="0.75956" height="0.75956" fill="white"/>
<rect x="8.44995" y="13.0075" width="0.75956" height="0.75956" fill="white"/>
<rect x="9.20947" y="13.0075" width="0.75956" height="0.75956" fill="white"/>
<rect x="9.96924" y="13.0075" width="0.75956" height="0.75956" fill="white"/>
<rect x="10.7288" y="13.0075" width="0.75956" height="0.75956" fill="white"/>
<rect x="8.44995" y="12.2479" width="0.75956" height="0.75956" fill="white"/>
<rect x="9.20947" y="12.2479" width="0.75956" height="0.75956" fill="white"/>
<rect x="9.96924" y="12.2479" width="0.75956" height="0.75956" fill="white"/>
<rect x="10.7288" y="12.2479" width="0.75956" height="0.75956" fill="white"/>
<rect x="9.20947" y="11.4883" width="0.75956" height="0.75956" fill="white"/>
<rect x="9.96924" y="11.4883" width="0.75956" height="0.75956" fill="white"/>
<rect x="10.7288" y="11.4883" width="0.75956" height="0.75956" fill="white"/>
<rect x="9.96924" y="10.7288" width="0.75956" height="0.75956" fill="white"/>
<rect x="10.7288" y="10.7288" width="0.75956" height="0.75956" fill="white"/>
<rect x="10.7288" y="9.96923" width="0.75956" height="0.75956" fill="white"/>
<rect x="11.4883" y="9.96923" width="0.75956" height="0.75956" fill="white"/>
<rect x="11.4883" y="10.7288" width="0.75956" height="0.75956" fill="white"/>
<rect x="11.4883" y="11.4883" width="0.75956" height="0.75956" fill="white"/>
<rect x="12.2478" y="9.96923" width="0.75956" height="0.75956" fill="white"/>
<rect x="12.2478" y="10.7288" width="0.75956" height="0.75956" fill="white"/>
<rect x="12.2478" y="11.4883" width="0.75956" height="0.75956" fill="white"/>
<rect x="7.69043" y="16.8053" width="0.75956" height="0.75956" fill="white"/>
<rect x="10.7288" y="18.3244" width="0.75956" height="0.75956" fill="white"/>
<rect x="10.7288" y="19.084" width="0.75956" height="0.75956" fill="white"/>
<rect x="10.7288" y="16.8053" width="0.75956" height="0.75956" fill="white"/>
<rect x="10.7288" y="16.0457" width="0.75956" height="0.75956" fill="white"/>
<rect x="10.7288" y="15.2862" width="0.75956" height="0.75956" fill="white"/>
<rect x="11.4883" y="18.3244" width="0.75956" height="0.75956" fill="white"/>
<rect x="11.4883" y="19.084" width="0.75956" height="0.75956" fill="white"/>
<rect x="11.4883" y="16.8053" width="0.75956" height="0.75956" fill="white"/>
<rect x="11.4883" y="16.0457" width="0.75956" height="0.75956" fill="white"/>
<rect x="11.4883" y="15.2862" width="0.75956" height="0.75956" fill="white"/>
<rect x="11.4883" y="14.5266" width="0.75956" height="0.75956" fill="white"/>
<rect x="12.2478" y="14.5266" width="0.75956" height="0.75956" fill="white"/>
<rect x="13.7668" y="14.5266" width="0.75956" height="0.75956" fill="white"/>
<rect x="15.2861" y="14.5266" width="0.75956" height="0.75956" fill="white"/>
<rect x="16.0457" y="14.5266" width="0.75956" height="0.75956" fill="white"/>
<rect x="16.8052" y="14.5266" width="0.75956" height="0.75956" fill="white"/>
<rect x="16.8052" y="13.767" width="0.75956" height="0.75956" fill="white"/>
<rect x="16.8052" y="13.0075" width="0.75956" height="0.75956" fill="white"/>
<rect x="16.8052" y="12.2479" width="0.75956" height="0.75956" fill="white"/>
<rect x="16.8052" y="11.4883" width="0.75956" height="0.75956" fill="white"/>
<rect x="16.8052" y="10.7288" width="0.75956" height="0.75956" fill="white"/>
<rect x="16.0457" y="10.7288" width="0.75956" height="0.75956" fill="white"/>
<rect x="16.0457" y="9.96923" width="0.75956" height="0.75956" fill="white"/>
<rect x="15.2861" y="9.96923" width="0.75956" height="0.75956" fill="white"/>
<rect x="15.2861" y="10.7288" width="0.75956" height="0.75956" fill="white"/>
<rect x="14.5266" y="10.7288" width="0.75956" height="0.75956" fill="white"/>
<rect x="13.7668" y="10.7288" width="0.75956" height="0.75956" fill="white"/>
<rect x="13.0073" y="10.7288" width="0.75956" height="0.75956" fill="white"/>
<rect x="15.2861" y="11.4883" width="0.75956" height="0.75956" fill="white"/>
<rect x="14.5266" y="11.4883" width="0.75956" height="0.75956" fill="white"/>
<rect x="14.5266" y="12.2479" width="0.75956" height="0.75956" fill="white"/>
<rect x="14.5266" y="13.0075" width="0.75956" height="0.75956" fill="white"/>
<rect x="14.5266" y="13.767" width="0.75956" height="0.75956" fill="white"/>
<rect x="13.7668" y="11.4883" width="0.75956" height="0.75956" fill="white"/>
<rect x="13.7668" y="12.2479" width="0.75956" height="0.75956" fill="white"/>
<rect x="13.7668" y="13.0075" width="0.75956" height="0.75956" fill="white"/>
<rect x="13.7668" y="13.767" width="0.75956" height="0.75956" fill="white"/>
<rect x="13.0073" y="11.4883" width="0.75956" height="0.75956" fill="white"/>
<rect x="13.0073" y="12.2479" width="0.75956" height="0.75956" fill="white"/>
<rect x="13.0073" y="13.0075" width="0.75956" height="0.75956" fill="white"/>
<rect x="13.0073" y="13.767" width="0.75956" height="0.75956" fill="white"/>
<rect x="16.0457" y="11.4883" width="0.75956" height="0.75956" fill="white"/>
<rect x="12.2478" y="18.3244" width="0.75956" height="0.75956" fill="white"/>
<rect x="12.2478" y="19.084" width="0.75956" height="0.75956" fill="white"/>
<rect x="12.2478" y="16.8053" width="0.75956" height="0.75956" fill="white"/>
<rect x="12.2478" y="16.0457" width="0.75956" height="0.75956" fill="white"/>
<rect x="12.2478" y="15.2862" width="0.75956" height="0.75956" fill="white"/>
<rect x="13.0073" y="18.3244" width="0.75956" height="0.75956" fill="white"/>
<rect x="13.0073" y="19.084" width="0.75956" height="0.75956" fill="white"/>
<rect x="13.0073" y="16.8053" width="0.75956" height="0.75956" fill="white"/>
<rect x="13.0073" y="16.0457" width="0.75956" height="0.75956" fill="white"/>
<rect x="13.0073" y="15.2862" width="0.75956" height="0.75956" fill="white"/>
<rect x="13.7668" y="18.3244" width="0.75956" height="0.75956" fill="white"/>
<rect x="13.7668" y="19.084" width="0.75956" height="0.75956" fill="white"/>
<rect x="13.7668" y="16.8053" width="0.75956" height="0.75956" fill="white"/>
<rect x="13.7668" y="16.0457" width="0.75956" height="0.75956" fill="white"/>
<rect x="13.7668" y="15.2862" width="0.75956" height="0.75956" fill="white"/>
<rect x="14.5266" y="18.3244" width="0.75956" height="0.75956" fill="white"/>
<rect x="14.5266" y="19.084" width="0.75956" height="0.75956" fill="white"/>
<rect x="14.5266" y="16.8053" width="0.75956" height="0.75956" fill="white"/>
<rect x="14.5266" y="16.0457" width="0.75956" height="0.75956" fill="white"/>
<rect x="14.5266" y="15.2862" width="0.75956" height="0.75956" fill="white"/>
<rect x="15.2861" y="18.3244" width="0.75956" height="0.75956" fill="white"/>
<rect x="15.2861" y="19.084" width="0.75956" height="0.75956" fill="white"/>
<rect x="15.2861" y="16.8053" width="0.75956" height="0.75956" fill="white"/>
<rect x="15.2861" y="16.0457" width="0.75956" height="0.75956" fill="white"/>
<rect x="15.2861" y="15.2862" width="0.75956" height="0.75956" fill="white"/>
<rect x="16.0457" y="18.3244" width="0.75956" height="0.75956" fill="white"/>
<rect x="16.0457" y="19.084" width="0.75956" height="0.75956" fill="white"/>
<rect x="16.0457" y="16.8053" width="0.75956" height="0.75956" fill="white"/>
<rect x="16.0457" y="16.0457" width="0.75956" height="0.75956" fill="white"/>
<rect x="16.0457" y="15.2862" width="0.75956" height="0.75956" fill="white"/>
<rect x="16.8052" y="16.8053" width="0.75956" height="0.75956" fill="white"/>
<rect x="16.8052" y="16.0457" width="0.75956" height="0.75956" fill="white"/>
<rect x="16.8052" y="15.2862" width="0.75956" height="0.75956" fill="white"/>
<rect x="17.5647" y="16.8053" width="0.75956" height="0.75956" fill="white"/>
<rect x="17.5647" y="16.0457" width="0.75956" height="0.75956" fill="white"/>
<rect x="17.5647" y="15.2862" width="0.75956" height="0.75956" fill="white"/>
<rect x="18.3242" y="16.8053" width="0.75956" height="0.75956" fill="white"/>
<rect x="18.3242" y="16.0457" width="0.75956" height="0.75956" fill="white"/>
<rect x="16.8052" y="18.3244" width="0.75956" height="0.75956" fill="white"/>
<rect x="8.44995" y="16.0457" width="0.75956" height="0.75956" fill="#0C0500"/>
<rect x="9.20947" y="15.2862" width="0.75956" height="0.75956" fill="#0C0500"/>
<rect x="17.5647" y="7.69055" width="0.75956" height="0.75956" transform="rotate(90 17.5647 7.69055)" fill="white"/>
<rect x="18.3242" y="7.69055" width="1.51912" height="0.75956" transform="rotate(90 18.3242 7.69055)" fill="white"/>
<rect x="19.8435" y="14.5266" width="1.51912" height="0.75956" transform="rotate(90 19.8435 14.5266)" fill="white"/>
<rect x="20.603" y="18.3244" width="1.51912" height="0.75956" transform="rotate(-180 20.603 18.3244)" fill="white"/>
<rect x="18.3242" y="18.3244" width="1.51912" height="0.75956" fill="white"/>
<rect x="17.5647" y="19.084" width="1.51912" height="0.75956" fill="white"/>
<rect x="16.8052" y="19.8435" width="1.51912" height="0.75956" fill="white"/>
<rect x="7.69043" y="20.6031" width="9.87429" height="0.75956" fill="white"/>
<rect x="6.93091" y="19.8435" width="1.51912" height="0.75956" fill="white"/>
<rect x="6.17139" y="19.084" width="1.51912" height="0.75956" fill="white"/>
<rect x="5.41187" y="18.3244" width="1.51912" height="0.75956" fill="white"/>
<rect x="4.6521" y="17.5648" width="1.51912" height="0.75956" fill="white"/>
<rect x="3.89258" y="16.8053" width="1.51912" height="0.75956" fill="white"/>
<rect x="3.13306" y="16.0457" width="1.51912" height="0.75956" fill="white"/>
<rect x="2.37354" y="15.2862" width="1.51912" height="0.75956" fill="white"/>
<rect x="3.13306" y="13.0075" width="2.27868" height="0.75956" transform="rotate(90 3.13306 13.0075)" fill="white"/>
<rect x="3.89258" y="13.0075" width="1.51912" height="0.75956" transform="rotate(180 3.89258 13.0075)" fill="white"/>
<rect x="4.6521" y="12.2479" width="1.51912" height="0.75956" transform="rotate(180 4.6521 12.2479)" fill="white"/>
<rect x="5.41187" y="11.4883" width="1.51912" height="0.75956" transform="rotate(180 5.41187 11.4883)" fill="white"/>
<rect x="5.41187" y="10.7288" width="0.75956" height="0.75956" transform="rotate(180 5.41187 10.7288)" fill="white"/>
<rect x="6.17139" y="9.96923" width="1.51912" height="0.75956" transform="rotate(180 6.17139 9.96923)" fill="white"/>
<rect x="6.93091" y="9.20967" width="1.51912" height="0.75956" transform="rotate(180 6.93091 9.20967)" fill="white"/>
<rect x="7.69043" y="8.45011" width="1.51912" height="0.75956" transform="rotate(180 7.69043 8.45011)" fill="white"/>
<rect x="8.44995" y="7.69055" width="1.51912" height="0.75956" transform="rotate(180 8.44995 7.69055)" fill="white"/>
<rect x="6.93091" y="6.93099" width="1.51912" height="0.75956" transform="rotate(-90 6.93091 6.93099)" fill="white"/>
<rect x="6.17139" y="5.41187" width="0.75956" height="0.75956" fill="white"/>
<rect x="6.17139" y="4.65231" width="0.75956" height="0.75956" fill="white"/>
<rect x="5.41187" y="4.65231" width="0.75956" height="0.75956" fill="white"/>
<rect x="5.41187" y="3.89275" width="0.75956" height="0.75956" fill="white"/>
<rect x="5.41187" y="3.13319" width="0.75956" height="0.75956" fill="white"/>
<rect x="5.41187" y="2.37363" width="0.75956" height="0.75956" fill="white"/>
<rect x="6.17139" y="2.37363" width="0.75956" height="0.75956" fill="white"/>
<rect x="6.93091" y="2.37363" width="0.75956" height="0.75956" fill="white"/>
<rect x="7.69043" y="2.37363" width="0.75956" height="0.75956" fill="white"/>
<rect x="7.69043" y="3.13319" width="0.75956" height="0.75956" fill="white"/>
<rect x="8.44995" y="3.13319" width="0.75956" height="0.75956" fill="white"/>
<rect x="8.44995" y="3.89275" width="0.75956" height="0.75956" fill="white"/>
<rect x="9.20947" y="3.89275" width="0.75956" height="0.75956" fill="white"/>
<rect x="9.96924" y="3.89275" width="0.75956" height="0.75956" fill="white"/>
<rect x="9.96924" y="4.65231" width="0.75956" height="0.75956" fill="white"/>
<rect x="10.7288" y="4.65231" width="0.75956" height="0.75956" fill="white"/>
<rect x="11.4883" y="4.65231" width="0.75956" height="0.75956" fill="white"/>
<rect x="12.2478" y="4.65231" width="0.75956" height="0.75956" fill="white"/>
<rect x="13.0073" y="4.65231" width="0.75956" height="0.75956" fill="white"/>
<rect x="13.7668" y="4.65231" width="0.75956" height="0.75956" fill="white"/>
<rect x="13.7668" y="3.89275" width="0.75956" height="0.75956" fill="white"/>
<rect x="14.5266" y="3.89275" width="0.75956" height="0.75956" fill="white"/>
<rect x="15.2861" y="3.89275" width="0.75956" height="0.75956" fill="white"/>
<rect x="15.2861" y="3.13319" width="0.75956" height="0.75956" fill="white"/>
<rect x="16.0457" y="3.13319" width="0.75956" height="0.75956" fill="white"/>
<rect x="16.8052" y="3.13319" width="0.75956" height="0.75956" fill="white"/>
<rect x="17.5647" y="3.13319" width="0.75956" height="0.75956" fill="white"/>
<rect x="17.5647" y="3.89275" width="0.75956" height="0.75956" fill="white"/>
<rect x="17.5647" y="4.65231" width="0.75956" height="0.75956" fill="white"/>
<rect x="17.5647" y="5.41187" width="0.75956" height="0.75956" fill="white"/>
<rect x="17.5647" y="6.17143" width="0.75956" height="0.75956" fill="white"/>
<rect x="16.8052" y="6.17143" width="0.75956" height="0.75956" fill="white"/>
<rect x="16.0457" y="6.93099" width="0.75956" height="0.75956" fill="white"/>
<rect x="16.8052" y="6.93099" width="0.75956" height="0.75956" fill="white"/>
<rect x="20.603" y="15.2862" width="2.27868" height="0.75956" transform="rotate(90 20.603 15.2862)" fill="white"/>
<rect x="19.084" y="8.45011" width="6.83604" height="0.75956" transform="rotate(90 19.084 8.45011)" fill="white"/>
<rect x="12.2478" y="12.2479" width="0.75956" height="0.75956" fill="#C9C9C9" fill-opacity="0.788235"/>
<rect x="16.0457" y="12.2479" width="0.75956" height="0.75956" fill="#C9C9C9" fill-opacity="0.788235"/>
</svg>
