<svg width="16" height="16" viewBox="0 0 16 16" fill="none" xmlns="http://www.w3.org/2000/svg">
<path d="M8.66541 13.3333H12.6654V10.6667H9.99875V9.33333H12.6654V4H11.3321V7.33333L8.66541 6.26667V13.3333ZM7.33208 13.3333V6.26667L4.66545 7.33333V4H3.33211V13.3333H7.33208ZM4.66545 2.66667V2H11.3321V2.66667H13.3321C13.7003 2.66667 13.9987 2.96515 13.9987 3.33333V14C13.9987 14.3682 13.7003 14.6667 13.3321 14.6667H2.66545C2.29725 14.6667 1.99878 14.3682 1.99878 14V3.33333C1.99878 2.96515 2.29725 2.66667 2.66545 2.66667H4.66545ZM7.99875 5.33333L10.3321 3.33333H5.66545L7.99875 5.33333Z" fill="black"/>
</svg>
