<svg width="16" height="16" viewBox="0 0 16 16" fill="none" xmlns="http://www.w3.org/2000/svg">
<path d="M1.33667 2.66651C1.33667 2.29832 1.63515 1.99985 2.00334 1.99985H14.0033C14.3715 1.99985 14.67 2.29832 14.67 2.66651V6.33318C13.7495 6.33318 13.0033 7.07939 13.0033 7.99985C13.0033 8.92032 13.7495 9.66652 14.67 9.66652V13.3332C14.67 13.7014 14.3715 13.9999 14.0033 13.9999H2.00334C1.63515 13.9999 1.33667 13.7014 1.33667 13.3332V2.66651ZM5.39358 12.6665C5.53085 12.2781 5.90126 11.9999 6.33667 11.9999C6.77208 11.9999 7.14248 12.2781 7.27975 12.6665H13.3367V10.688C12.3489 10.1971 11.67 9.17772 11.67 7.99985C11.67 6.82192 12.3489 5.80259 13.3367 5.31169V3.33318H7.27975C7.14248 3.72157 6.77208 3.99985 6.33667 3.99985C5.90126 3.99985 5.53085 3.72157 5.39358 3.33318H2.67V12.6665H5.39358ZM6.33667 7.33319C5.78439 7.33319 5.33667 6.88545 5.33667 6.33318C5.33667 5.78089 5.78439 5.33318 6.33667 5.33318C6.88895 5.33318 7.33668 5.78089 7.33668 6.33318C7.33668 6.88545 6.88895 7.33319 6.33667 7.33319ZM6.33667 10.6665C5.78439 10.6665 5.33667 10.2188 5.33667 9.66652C5.33667 9.11425 5.78439 8.66652 6.33667 8.66652C6.88895 8.66652 7.33668 9.11425 7.33668 9.66652C7.33668 10.2188 6.88895 10.6665 6.33667 10.6665Z" fill="black"/>
</svg>
